PathFileType  4	(X/Y/Z) C:\Users\antoi\Documents\MyRepositories\mobilecap\ResultsAnalysis
DataRate	CameraRate	NumFrames	NumMarkers	Units	OrigDataRate	OrigDataStartFrame	OrigNumFrames
100.0	100.0	4	51	mm	100.0	872	1394
Frame#	Time	r_knee			r_shank_antsup			r_ankle			r_calc			r_5meta			r_toe			L_knee			L_shank_antsup			L_ankle			L_calc			L_5meta			L_toe			r_sh2			r_sh3			r_sh4			L_sh2			L_sh3			r_thigh1			r_thigh2			r_thigh3			r_thigh4			r_thigh5			L_thigh1			L_thigh2			L_thigh3			L_thigh4			r.ASIS			r.PSIS			L.ASIS			L.PSIS			C7			R_Shoulder			L_Shoulder			R_Sternum			L_Sternum			R_humerus			R_elbow_med			R_elbow_lat			R_forearm			R_wrist_radius			R_wrist_ulna			L_humerus			L_elbow_med			L_elbow_lat			L_forearm			L_wrist_radius			L_wrist_ulna			R_HJC			L_HJC			R_HJC_reg			L_HJC_reg			
		X1	Y1	Z1	X2	Y2	Z2	X3	Y3	Z3	X4	Y4	Z4	X5	Y5	Z5	X6	Y6	Z6	X7	Y7	Z7	X8	Y8	Z8	X9	Y9	Z9	X10	Y10	Z10	X11	Y11	Z11	X12	Y12	Z12	X13	Y13	Z13	X14	Y14	Z14	X15	Y15	Z15	X16	Y16	Z16	X17	Y17	Z17	X18	Y18	Z18	X19	Y19	Z19	X20	Y20	Z20	X21	Y21	Z21	X22	Y22	Z22	X23	Y23	Z23	X24	Y24	Z24	X25	Y25	Z25	X26	Y26	Z26	X27	Y27	Z27	X28	Y28	Z28	X29	Y29	Z29	X30	Y30	Z30	X31	Y31	Z31	X32	Y32	Z32	X33	Y33	Z33	X34	Y34	Z34	X35	Y35	Z35	X36	Y36	Z36	X37	Y37	Z37	X38	Y38	Z38	X39	Y39	Z39	X40	Y40	Z40	X41	Y41	Z41	X42	Y42	Z42	X43	Y43	Z43	X44	Y44	Z44	X45	Y45	Z45	X46	Y46	Z46	X47	Y47	Z47	X48	Y48	Z48	X49	Y49	Z49	X50	Y50	Z50	X51	Y51	Z51	

872	8.71000000	-184.22469	474.18538	-463.40999	-125.10578	410.89835	-474.62648	-260.21095	97.24044	-467.80205	-332.79447	63.54506	-499.63647	-160.00659	46.20888	-431.12897	-113.00408	72.65999	-486.21983	-195.05071	469.06564	-896.35443	-140.41404	388.88758	-902.63432	-252.90777	97.82221	-870.98168	-317.28904	61.74335	-825.84754	-147.79914	44.69916	-912.56596	-105.87929	71.21363	-860.75045	-169.59109	305.69537	-450.69828	-197.08680	437.71537	-446.39644	-237.32081	333.62829	-439.90078	-227.93684	410.81498	-904.99724	-247.75536	289.38107	-907.57664	-492.03706	556.47250	-489.97271	-381.93765	547.53325	-479.56186	-366.98007	489.47983	-445.54523	-504.95025	446.54518	-469.16081	-387.68073	437.56956	-457.94902	-463.69101	511.57231	-912.02958	-325.86735	516.69194	-906.10600	-461.13248	401.72339	-868.12952	-320.90143	412.24409	-879.94188	-504.28309	584.35621	-559.08355	-692.63747	588.73685	-633.43526	-506.83094	573.36689	-808.47780	-701.89753	590.87321	-727.13612	-627.16219	1013.53541	-688.33544	-541.05295	1001.02917	-522.77316	-543.80533	991.09171	-855.87774	-490.29983	963.67965	-661.93946	-485.96296	962.30095	-702.72865	-495.38197	905.56310	-435.54072	-436.13830	692.69368	-423.97514	-408.72379	738.94122	-364.66102	-308.17485	790.87405	-448.99812	-223.32926	829.60494	-535.86852	-199.98203	803.44296	-534.36753	-491.96405	905.21420	-928.70142	-406.52183	679.30681	-925.69009	-390.21764	734.63400	-990.40361	-318.51381	782.16234	-919.48136	-212.87403	830.01065	-824.95530	-190.37336	807.41261	-837.06464	-563.39410	492.25711	-578.48452	-569.60841	488.47342	-784.82494	-553.72922	491.76899	-590.86137	-569.92860	495.50771	-754.79050	
873	8.72000000	-184.39632	474.22665	-463.08280	-125.21064	410.95432	-474.31582	-260.26285	97.28418	-467.71616	-332.82892	63.53484	-499.60892	-160.02374	46.27429	-431.14718	-113.02501	72.75440	-486.26081	-194.84017	469.11080	-895.95681	-140.16981	388.99300	-902.36093	-252.91976	97.83056	-870.92799	-317.34532	61.67387	-825.81479	-147.79602	44.75268	-912.51493	-105.90474	71.27927	-860.69088	-169.61291	305.77725	-450.58299	-197.14298	437.77538	-446.14489	-237.67684	333.34321	-439.63765	-227.74855	410.90209	-904.66058	-247.63259	289.44626	-907.33250	-492.34782	556.82177	-489.67454	-382.22991	547.60141	-479.36297	-367.09328	489.60308	-445.26751	-505.05016	446.66744	-468.94551	-387.80160	437.67141	-457.60469	-463.79068	512.11752	-912.75769	-325.54243	516.50827	-905.53216	-460.88214	401.74338	-868.07026	-320.68871	412.16091	-879.49486	-504.00205	584.00169	-559.07319	-692.21874	589.15326	-633.60053	-506.53062	574.31889	-810.84827	-701.32214	591.35577	-727.03655	-623.43609	1013.78589	-687.39702	-537.38551	1000.73834	-521.88029	-539.98015	990.82267	-854.68910	-486.77278	962.98907	-661.20533	-482.51582	961.34380	-701.17576	-492.40467	904.65891	-434.62475	-434.02121	691.63593	-423.45166	-406.46940	737.50186	-364.02091	-305.65942	789.30812	-448.09038	-220.62019	828.06131	-534.82079	-197.36033	801.73970	-533.33484	-488.72634	904.60292	-927.99984	-403.81790	678.40568	-924.62011	-387.36632	733.68518	-989.31656	-315.67118	781.24041	-918.49117	-210.10170	828.94591	-823.82185	-187.58358	806.18090	-835.73269	-562.78619	492.07240	-579.66905	-569.58023	489.34827	-786.00880	-553.79952	491.50896	-591.39272	-569.92217	495.40853	-756.86733	
874	8.73000000	-184.57623	474.25407	-462.84633	-125.37937	410.96557	-474.12315	-260.29677	97.30113	-467.69879	-332.85413	63.53715	-499.53332	-160.04231	46.33277	-431.18143	-113.05891	72.90847	-486.26989	-194.62989	469.19476	-895.66556	-139.94700	389.13079	-902.19626	-252.92269	97.86313	-870.89156	-317.37150	61.61474	-825.76206	-147.79943	44.83173	-912.46366	-105.92245	71.33967	-860.62337	-169.72357	305.76361	-450.41845	-197.29498	437.81876	-445.91803	-237.98619	333.25962	-439.40994	-227.55844	410.93941	-904.17343	-247.52083	289.52808	-907.12161	-492.57100	557.12328	-489.45229	-382.60531	547.68983	-479.11283	-367.23522	489.72257	-445.02755	-505.16466	446.80032	-468.73400	-387.94041	437.76589	-457.35468	-463.25380	512.49509	-911.99100	-325.20076	516.40867	-905.00810	-460.61956	401.97189	-868.10983	-320.51080	412.12562	-879.08952	-503.96669	584.10211	-558.38369	-691.73269	589.53410	-633.74546	-506.06611	574.75547	-811.98342	-700.67124	591.81202	-726.97815	-619.41994	1014.11929	-686.22880	-533.36871	1000.25159	-520.80916	-535.83306	990.58969	-853.86363	-483.03827	962.32070	-660.70962	-478.70424	960.49336	-699.60611	-489.17467	903.93447	-433.63191	-431.49648	690.25921	-423.02565	-403.84271	735.95350	-363.41612	-302.80777	787.60337	-447.31204	-217.62400	826.36592	-534.04929	-194.44551	799.86814	-532.55282	-485.09852	903.96833	-927.19182	-400.94910	677.57879	-923.32016	-384.36017	732.71163	-988.14925	-312.61509	780.18157	-917.46201	-206.97866	827.90225	-822.71098	-184.48816	804.89692	-834.52463	-562.49727	492.22095	-579.93143	-569.21152	489.82616	-786.27943	-553.67031	491.20575	-591.18178	-569.65137	495.27754	-757.86302	
875	8.74000000	-184.76040	474.24642	-462.68175	-125.60597	410.99434	-473.92725	-260.32023	97.33095	-467.66801	-332.87460	63.53671	-499.48417	-160.06280	46.37885	-431.22179	-113.09516	73.09508	-486.25071	-194.39438	469.27248	-895.34077	-139.73231	389.25368	-902.00957	-252.92787	97.91644	-870.87705	-317.38984	61.58762	-825.72908	-147.79518	44.91959	-912.41325	-105.94392	71.44450	-860.58854	-169.91403	305.65380	-450.26411	-197.54579	437.88819	-445.66812	-238.10020	333.32928	-439.10043	-227.34362	410.99189	-903.55750	-247.41225	289.66549	-906.95375	-492.61688	557.24293	-489.32512	-382.71784	547.77839	-478.80390	-367.41134	489.77364	-444.85536	-505.39383	447.05521	-468.37705	-388.08682	437.84913	-457.19106	-462.71871	512.83788	-911.34963	-324.90386	516.45443	-904.63364	-460.42626	402.32331	-868.23036	-320.34886	412.16582	-878.75055	-504.18494	584.57074	-556.87921	-691.22840	589.98081	-633.85287	-505.44765	574.47096	-811.59411	-699.99117	592.42529	-726.95037	-614.98549	1014.28453	-685.01867	-528.98775	999.63062	-519.72701	-531.31734	990.30356	-852.98265	-478.89800	961.64036	-659.93730	-474.50138	959.77788	-698.28930	-485.54923	903.27157	-432.70945	-428.53810	688.79674	-422.76938	-400.79584	734.33935	-362.89105	-299.59156	785.74449	-446.72133	-214.21961	824.46213	-533.30664	-191.17647	797.85086	-532.13668	-481.10732	903.32503	-926.19599	-397.78268	676.78182	-922.03137	-381.09915	731.69606	-986.88614	-309.30749	779.02148	-916.34207	-203.55322	826.73305	-821.51370	-181.15546	803.62464	-833.29558	-562.75156	492.68357	-579.10421	-568.62004	489.81786	-785.47072	-553.42624	490.71409	-590.13481	-569.18683	495.11216	-757.58353	
